<svg width="161" height="171" viewBox="0 0 161 171" fill="none" xmlns="http://www.w3.org/2000/svg">
<path d="M29.3191 38.1463C29.0784 35.3953 31.1134 32.9702 33.8643 32.7295L37.1679 32.4405L47.1945 147.044L43.8908 147.333C41.1399 147.574 38.7147 145.539 38.4741 142.788L29.3191 38.1463Z" fill="#052973"/>
<path d="M29.722 33.37L29.4599 33.3929L36.9506 29.9549L37.1922 32.7164L29.722 33.37Z" fill="#052973"/>
<path d="M46.6146 140.416L121.176 133.893L121.756 140.521L47.1945 147.044L46.6146 140.416Z" fill="#E8E9D9"/>
<path d="M129.461 133.168L121.176 133.893L121.756 140.521L129.461 133.168Z" fill="#E8E9D9"/>
<path d="M40.0146 147.672L46.6147 140.416L47.1946 147.044L40.0146 147.672Z" fill="#E8E9D9"/>
<path d="M36.9508 29.9546L116.197 23.0215C118.948 22.7808 121.373 24.8157 121.614 27.5667L130.406 128.066C130.647 130.817 128.612 133.242 125.861 133.483L46.615 140.416L36.9508 29.9546Z" fill="#011F5B"/>
<rect x="39.3414" y="146.34" width="84.8258" height="1.38604" rx="0.693022" transform="rotate(-5 39.3414 146.34)" fill="#052973"/>
</svg>
