<svg width="190" height="64" viewBox="0 0 190 64" fill="none" xmlns="http://www.w3.org/2000/svg">
<path d="M1.35156 9.83594C1.35156 8.45523 2.47085 7.33594 3.85156 7.33594H179.146V51.8571H3.85156C2.47085 51.8571 1.35156 50.7378 1.35156 49.3571V9.83594Z" fill="#FEFEFE" stroke="black"/>
<rect x="0.5" y="7.5" width="178.625" height="6.87866" rx="2.5" fill="#FEFEFE" stroke="black"/>
<mask id="path-3-inside-1_105_1108" fill="white">
<path d="M84.0855 6.83613C84.0855 4.09644 86.3065 1.87549 89.0461 1.87549H120.673C123.412 1.87549 125.633 4.09644 125.633 6.83613H84.0855Z"/>
</mask>
<path d="M84.0855 6.83613C84.0855 4.09644 86.3065 1.87549 89.0461 1.87549H120.673C123.412 1.87549 125.633 4.09644 125.633 6.83613H84.0855Z" fill="#FEFEFE"/>
<path d="M83.0855 6.83613C83.0855 3.54416 85.7542 0.875488 89.0461 0.875488H120.673C123.965 0.875488 126.633 3.54416 126.633 6.83613H124.633C124.633 4.64873 122.86 2.87549 120.673 2.87549H89.0461C86.8587 2.87549 85.0855 4.64873 85.0855 6.83613H83.0855ZM125.633 6.83613H84.0855H125.633ZM83.0855 6.83613C83.0855 3.54416 85.7542 0.875488 89.0461 0.875488V2.87549C86.8587 2.87549 85.0855 4.64873 85.0855 6.83613H83.0855ZM120.673 0.875488C123.965 0.875488 126.633 3.54416 126.633 6.83613H124.633C124.633 4.64873 122.86 2.87549 120.673 2.87549V0.875488Z" fill="black" mask="url(#path-3-inside-1_105_1108)"/>
<mask id="path-5-outside-2_105_1108" maskUnits="userSpaceOnUse" x="88.9999" y="0" width="32" height="2" fill="black">
<rect fill="white" x="88.9999" width="32" height="2"/>
<path d="M89.9999 1.87541C89.9999 1.39193 90.3918 1 90.8753 1H119.124C119.608 1 120 1.39193 120 1.87541H89.9999Z"/>
</mask>
<path d="M89.9999 1.87541C89.9999 1.39193 90.3918 1 90.8753 1H119.124C119.608 1 120 1.39193 120 1.87541H89.9999Z" fill="#FEFEFE"/>
<path d="M88.9999 1.87541C88.9999 0.839648 89.8395 0 90.8753 0H119.124C120.16 0 121 0.839648 121 1.87541H119H90.9999H88.9999ZM120 1.87541H89.9999H120ZM88.9999 1.87541C88.9999 0.839648 89.8395 0 90.8753 0L90.9999 1.87541H88.9999ZM119.124 0C120.16 0 121 0.839648 121 1.87541H119L119.124 0Z" fill="black" mask="url(#path-5-outside-2_105_1108)"/>
<mask id="path-7-inside-3_105_1108" fill="white">
<path d="M178.953 6.35547C178.953 5.2509 179.849 4.35547 180.953 4.35547H183.186C184.29 4.35547 185.186 5.2509 185.186 6.35547V12.7144C185.186 13.819 184.29 14.7144 183.186 14.7144H178.953V6.35547Z"/>
</mask>
<path d="M178.953 6.35547C178.953 5.2509 179.849 4.35547 180.953 4.35547H183.186C184.29 4.35547 185.186 5.2509 185.186 6.35547V12.7144C185.186 13.819 184.29 14.7144 183.186 14.7144H178.953V6.35547Z" fill="#FEFEFE"/>
<path d="M178.253 6.05547C178.253 4.5643 179.462 3.35547 180.953 3.35547H183.186C184.842 3.35547 186.186 4.69861 186.186 6.35547H184.186C184.186 5.80318 183.738 5.35547 183.186 5.35547H180.953C180.235 5.35547 179.653 5.80318 179.653 6.35547L178.253 6.05547ZM186.186 12.7144C186.186 14.3713 184.842 15.7144 183.186 15.7144H178.253L179.653 13.7144H183.186C183.738 13.7144 184.186 13.2667 184.186 12.7144H186.186ZM178.253 15.7144V6.05547C178.253 4.5643 179.462 3.35547 180.953 3.35547V5.35547C180.235 5.35547 179.653 5.80318 179.653 6.35547V13.7144L178.253 15.7144ZM183.186 3.35547C184.842 3.35547 186.186 4.69861 186.186 6.35547V12.7144C186.186 14.3713 184.842 15.7144 183.186 15.7144V13.7144C183.738 13.7144 184.186 13.2667 184.186 12.7144V6.35547C184.186 5.80318 183.738 5.35547 183.186 5.35547V3.35547Z" fill="black" mask="url(#path-7-inside-3_105_1108)"/>
<mask id="path-9-inside-4_105_1108" fill="white">
<path d="M179 36H184C185.657 36 187 37.3431 187 39V49.3C187 50.9569 185.657 52.3 184 52.3H179V36Z"/>
</mask>
<path d="M179 36H184C185.657 36 187 37.3431 187 39V49.3C187 50.9569 185.657 52.3 184 52.3H179V36Z" fill="#FEFEFE"/>
<path d="M178.4 35H184C186.209 35 188 36.7909 188 39H186C186 37.8954 185.105 37 184 37H179.6L178.4 35ZM188 49.3C188 51.5091 186.209 53.3 184 53.3H178.4L179.6 51.3H184C185.105 51.3 186 50.4046 186 49.3H188ZM178.4 53.3V35L179.6 37V51.3L178.4 53.3ZM184 35C186.209 35 188 36.7909 188 39V49.3C188 51.5091 186.209 53.3 184 53.3V51.3C185.105 51.3 186 50.4046 186 49.3V39C186 37.8954 185.105 37 184 37V35Z" fill="black" mask="url(#path-9-inside-4_105_1108)"/>
<rect x="130.843" y="17.5493" width="19.7739" height="17.6753" rx="2.5" fill="#262039" stroke="black"/>
<rect x="106.606" y="17.5493" width="19.7739" height="17.6753" rx="2.5" fill="#262039" stroke="black"/>
<rect x="82.3698" y="17.5493" width="19.7739" height="17.6753" rx="2.5" fill="#262039" stroke="black"/>
<rect x="35.2827" y="17.5493" width="19.7739" height="17.6753" rx="2.5" fill="#262039" stroke="black"/>
<rect x="11.0461" y="17.5493" width="19.7739" height="17.6753" rx="2.5" fill="#262039" stroke="black"/>
<path d="M179.646 13.4014H182.175L184.493 37.0374H179.646V13.4014Z" fill="#FEFEFE"/>
<line y1="-0.5" x2="24" y2="-0.5" transform="matrix(0.104888 0.994484 -0.993219 0.116261 182 13.7998)" stroke="black"/>
<path d="M1.99988 42H178.7V51.4627H3.99988C2.89531 51.4627 1.99988 50.5673 1.99988 49.4627V42Z" fill="#D9D9D9"/>
<mask id="path-19-inside-5_105_1108" fill="white">
<path d="M151.116 52.3576C151.116 50.9206 150.848 49.4977 150.326 48.1701C149.804 46.8425 149.039 45.6362 148.074 44.62C147.11 43.6039 145.965 42.7979 144.704 42.248C143.444 41.6981 142.094 41.415 140.729 41.415C139.365 41.415 138.015 41.6981 136.755 42.248C135.494 42.7979 134.349 43.6039 133.385 44.62C132.42 45.6362 131.655 46.8425 131.133 48.1701C130.611 49.4977 130.343 50.9206 130.343 52.3576L140.729 52.3576H151.116Z"/>
</mask>
<path d="M151.116 52.3576C151.116 50.9206 150.848 49.4977 150.326 48.1701C149.804 46.8425 149.039 45.6362 148.074 44.62C147.11 43.6039 145.965 42.7979 144.704 42.248C143.444 41.6981 142.094 41.415 140.729 41.415C139.365 41.415 138.015 41.6981 136.755 42.248C135.494 42.7979 134.349 43.6039 133.385 44.62C132.42 45.6362 131.655 46.8425 131.133 48.1701C130.611 49.4977 130.343 50.9206 130.343 52.3576L140.729 52.3576H151.116Z" fill="#130E08" stroke="black" stroke-width="2" mask="url(#path-19-inside-5_105_1108)"/>
<mask id="path-20-inside-6_105_1108" fill="white">
<path d="M55.5566 52.3576C55.5566 50.9206 55.2879 49.4977 54.7659 48.1701C54.2439 46.8425 53.4788 45.6362 52.5143 44.62C51.5498 43.6039 50.4047 42.7979 49.1445 42.248C47.8843 41.6981 46.5336 41.415 45.1696 41.415C43.8056 41.415 42.4549 41.6981 41.1947 42.248C39.9345 42.7979 38.7894 43.6039 37.8249 44.62C36.8604 45.6362 36.0953 46.8425 35.5733 48.1701C35.0513 49.4977 34.7827 50.9206 34.7827 52.3576L45.1696 52.3576H55.5566Z"/>
</mask>
<path d="M55.5566 52.3576C55.5566 50.9206 55.2879 49.4977 54.7659 48.1701C54.2439 46.8425 53.4788 45.6362 52.5143 44.62C51.5498 43.6039 50.4047 42.7979 49.1445 42.248C47.8843 41.6981 46.5336 41.415 45.1696 41.415C43.8056 41.415 42.4549 41.6981 41.1947 42.248C39.9345 42.7979 38.7894 43.6039 37.8249 44.62C36.8604 45.6362 36.0953 46.8425 35.5733 48.1701C35.0513 49.4977 34.7827 50.9206 34.7827 52.3576L45.1696 52.3576H55.5566Z" fill="#130E08" stroke="black" stroke-width="2" mask="url(#path-20-inside-6_105_1108)"/>
<path d="M53.2557 53.1598C53.2557 57.9448 49.58 61.7787 45.0999 61.7787C40.6198 61.7787 36.9441 57.9448 36.9441 53.1598C36.9441 48.3749 40.6198 44.541 45.0999 44.541C49.58 44.541 53.2557 48.3749 53.2557 53.1598Z" fill="black" stroke="#222222"/>
<path d="M148.816 52.2843C148.816 57.0693 145.14 60.9032 140.66 60.9032C136.18 60.9032 132.504 57.0693 132.504 52.2843C132.504 47.4994 136.18 43.6655 140.66 43.6655C145.14 43.6655 148.816 47.4994 148.816 52.2843Z" fill="black" stroke="#222222"/>
<rect x="158.264" y="17.5493" width="17.835" height="34.3081" rx="1.5" fill="#FEFEFE" stroke="black"/>
<rect x="160.5" y="19.5" width="5.09368" height="17.0917" rx="0.5" fill="#262039" stroke="black"/>
<rect x="160.5" y="39.1973" width="5.09368" height="10.818" rx="0.5" fill="#262039" stroke="black"/>
<rect x="169.344" y="39.1426" width="5.09368" height="10.818" rx="0.5" fill="#262039" stroke="black"/>
<rect x="169.344" y="19.4458" width="5.09368" height="17.0917" rx="0.5" fill="#262039" stroke="black"/>
<line x1="167.543" y1="17.0493" x2="167.543" y2="52.3574" stroke="black"/>
<rect x="59.934" y="17.5493" width="17.835" height="34.3081" rx="1.5" fill="#FEFEFE" stroke="black"/>
<rect x="62.1002" y="19.4453" width="5.09368" height="17.0917" rx="0.5" fill="#262039" stroke="black"/>
<rect x="71.1519" y="19.4458" width="5.09368" height="17.0917" rx="0.5" fill="#262039" stroke="black"/>
<line x1="69.3516" y1="17.0493" x2="69.3516" y2="52.3574" stroke="black"/>
<path d="M85.2 6.0998C85.2 5.93412 85.3343 5.7998 85.5 5.7998H124.2C124.366 5.7998 124.5 5.93412 124.5 6.0998V6.7998H85.2V6.0998Z" fill="#D9D9D9"/>
<rect x="59.9204" y="9" width="117.165" height="3.64753" rx="1" fill="#F14728"/>
<rect x="179.5" y="40" width="6.5" height="4" fill="#1F4FA3"/>
<rect x="3" y="9" width="53.0427" height="3.64753" rx="1" fill="#1F4FA3"/>
<line x1="132.504" y1="19.5918" x2="132.504" y2="25.8869" stroke="#76A2C6" stroke-linecap="round"/>
<line x1="108.545" y1="19.5918" x2="108.545" y2="25.8869" stroke="#76A2C6" stroke-linecap="round"/>
<line x1="84.5855" y1="19.5918" x2="84.5855" y2="25.8869" stroke="#76A2C6" stroke-linecap="round"/>
<line x1="12.5695" y1="19.5918" x2="12.5695" y2="25.8869" stroke="#76A2C6" stroke-linecap="round"/>
<line x1="36.944" y1="19.5918" x2="36.944" y2="25.8869" stroke="#76A2C6" stroke-linecap="round"/>
<path d="M143.969 52.2843C143.969 54.2489 142.463 55.7965 140.66 55.7965C138.857 55.7965 137.352 54.2489 137.352 52.2843C137.352 50.3196 138.857 48.772 140.66 48.772C142.463 48.772 143.969 50.3196 143.969 52.2843Z" fill="#D9D9D9" stroke="#222222"/>
<path d="M48.4085 53.1597C48.4085 55.1244 46.903 56.672 45.0999 56.672C43.2969 56.672 41.7914 55.1244 41.7914 53.1597C41.7914 51.1951 43.2969 49.6475 45.0999 49.6475C46.903 49.6475 48.4085 51.1951 48.4085 53.1597Z" fill="#D9D9D9" stroke="#222222"/>
<path d="M142.307 52.2844C142.307 53.2821 141.545 54.0459 140.66 54.0459C139.775 54.0459 139.014 53.2821 139.014 52.2844C139.014 51.2867 139.775 50.5229 140.66 50.5229C141.545 50.5229 142.307 51.2867 142.307 52.2844Z" fill="#D9D9D9" stroke="#222222"/>
<path d="M46.7467 53.1599C46.7467 54.1576 45.9853 54.9214 45.1001 54.9214C44.2149 54.9214 43.4534 54.1576 43.4534 53.1599C43.4534 52.1622 44.2149 51.3984 45.1001 51.3984C45.9853 51.3984 46.7467 52.1622 46.7467 53.1599Z" fill="#D9D9D9" stroke="#222222"/>
<line x1="3.01343" y1="18.4458" x2="8.2456" y2="18.4458" stroke="black" stroke-linecap="round"/>
<line x1="3.01343" y1="19.9053" x2="8.2456" y2="19.9053" stroke="black" stroke-linecap="round"/>
<line x1="3.01343" y1="21.3638" x2="8.2456" y2="21.3638" stroke="black" stroke-linecap="round"/>
<mask id="path-49-inside-7_105_1108" fill="white">
<path d="M179.646 17.0493H185.54C186.645 17.0493 187.54 17.9447 187.54 19.0493V20.405H179.646V17.0493Z"/>
</mask>
<path d="M179.646 16.0493H185.54C187.197 16.0493 188.54 17.3925 188.54 19.0493H186.54C186.54 18.497 186.092 18.0493 185.54 18.0493H179.646V16.0493ZM188.54 21.405H179.646V19.405H186.54L188.54 21.405ZM179.646 20.405V17.0493V20.405ZM185.54 16.0493C187.197 16.0493 188.54 17.3925 188.54 19.0493V21.405L186.54 19.405V19.0493C186.54 18.497 186.092 18.0493 185.54 18.0493V16.0493Z" fill="black" mask="url(#path-49-inside-7_105_1108)"/>
<path d="M185 20H187.016C188.121 20 189.016 20.8954 189.016 22V23.9819C189.016 25.0865 188.121 25.9819 187.016 25.9819H185V20Z" fill="black"/>
<line x1="186.054" y1="20.4375" x2="186.054" y2="23.0637" stroke="#262039"/>
<path d="M179.5 49.5H186C186 50.6281 185.085 51.5426 183.957 51.5426H179.5V49.5Z" fill="#D9D9D9"/>
<path d="M162.278 12.2562C162.118 12.2562 161.964 12.2429 161.818 12.2162C161.671 12.1922 161.538 12.1575 161.418 12.1122C161.298 12.0642 161.195 12.0122 161.11 11.9562L161.422 11.3642C161.518 11.4229 161.616 11.4735 161.718 11.5162C161.822 11.5562 161.927 11.5869 162.034 11.6082C162.14 11.6295 162.247 11.6402 162.354 11.6402C162.455 11.6402 162.542 11.6309 162.614 11.6122C162.686 11.5909 162.74 11.5615 162.778 11.5242C162.815 11.4869 162.834 11.4429 162.834 11.3922C162.834 11.3362 162.808 11.2922 162.758 11.2602C162.71 11.2255 162.646 11.1962 162.566 11.1722C162.486 11.1482 162.396 11.1242 162.298 11.1002C162.202 11.0735 162.104 11.0429 162.006 11.0082C161.91 10.9709 161.822 10.9255 161.742 10.8722C161.662 10.8162 161.596 10.7455 161.546 10.6602C161.498 10.5749 161.474 10.4695 161.474 10.3442C161.474 10.1415 161.528 9.96553 161.638 9.8162C161.747 9.66686 161.902 9.55086 162.102 9.4682C162.304 9.38553 162.543 9.3442 162.818 9.3442C163.018 9.3442 163.204 9.36553 163.378 9.4082C163.551 9.4482 163.7 9.50686 163.826 9.5842L163.538 10.1722C163.428 10.1029 163.307 10.0509 163.174 10.0162C163.043 9.97886 162.908 9.9602 162.77 9.9602C162.663 9.9602 162.571 9.9722 162.494 9.9962C162.419 10.0202 162.362 10.0535 162.322 10.0962C162.284 10.1362 162.266 10.1815 162.266 10.2322C162.266 10.2855 162.29 10.3295 162.338 10.3642C162.386 10.3989 162.45 10.4282 162.53 10.4522C162.612 10.4762 162.702 10.5015 162.798 10.5282C162.896 10.5522 162.994 10.5815 163.09 10.6162C163.186 10.6482 163.275 10.6922 163.358 10.7482C163.44 10.8015 163.506 10.8695 163.554 10.9522C163.602 11.0349 163.626 11.1375 163.626 11.2602C163.626 11.4602 163.571 11.6349 163.462 11.7842C163.352 11.9335 163.196 12.0495 162.994 12.1322C162.791 12.2149 162.552 12.2562 162.278 12.2562ZM164.892 10.4842H166.192L166.076 11.0762H164.776L164.892 10.4842ZM164.728 11.5882H166.196L166.068 12.2002H163.824L164.384 9.4002H166.576L166.452 10.0122H165.04L164.728 11.5882ZM166.511 12.2002L167.071 9.4002H168.255C168.618 9.4002 168.898 9.47886 169.095 9.6362C169.292 9.79353 169.391 10.0149 169.391 10.3002C169.391 10.5349 169.335 10.7402 169.223 10.9162C169.111 11.0922 168.951 11.2282 168.743 11.3242C168.535 11.4202 168.29 11.4682 168.007 11.4682H167.099L167.519 11.1162L167.303 12.2002H166.511ZM167.499 11.2082L167.223 10.8442H168.043C168.216 10.8442 168.351 10.8029 168.447 10.7202C168.543 10.6375 168.591 10.5202 168.591 10.3682C168.591 10.2509 168.552 10.1642 168.475 10.1082C168.398 10.0522 168.29 10.0242 168.151 10.0242H167.391L167.811 9.6482L167.499 11.2082ZM169.943 12.2002L170.379 10.0282H169.519L169.647 9.4002H172.155L172.027 10.0282H171.171L170.735 12.2002H169.943ZM171.413 12.2002L173.209 9.4002H173.989L174.665 12.2002H173.877L173.377 9.7762H173.689L172.249 12.2002H171.413ZM172.197 11.6562L172.517 11.0722H173.885L173.973 11.6562H172.197Z" fill="#FEFEFE"/>
</svg>
