<svg width="270" height="270" viewBox="0 0 270 270" fill="none" xmlns="http://www.w3.org/2000/svg">
<path d="M216.256 88.0864C218.648 86.7057 221.718 87.5197 222.976 89.9779C228.117 100.024 231.505 110.888 232.981 122.1C234.458 133.313 233.997 144.684 231.631 155.718C231.052 158.418 228.297 159.999 225.63 159.284L146.66 138.124C142.357 136.971 141.596 131.192 145.454 128.964L216.256 88.0864Z" fill="#D7AC16"/>
<path d="M204.601 94.8066C206.992 93.4259 210.064 94.2393 211.303 96.7075C215.572 105.216 218.393 114.389 219.638 123.85C220.884 133.311 220.533 142.902 218.612 152.226C218.054 154.93 215.297 156.511 212.63 155.796L146.654 138.118C142.351 136.965 141.59 131.186 145.448 128.958L204.601 94.8066Z" fill="#990000"/>
<path d="M203.528 95.277C205.919 93.8963 208.991 94.7099 210.235 97.175C214.511 105.643 217.407 114.736 218.794 124.082C220.164 133.31 220.039 142.632 218.436 151.672C217.938 154.482 215.069 156.129 212.33 155.325L148.743 136.666C144.523 135.427 143.842 129.737 147.65 127.538L203.528 95.277Z" fill="#E7C13C"/>
<circle cx="202.072" cy="109.523" r="5.81334" fill="#990000"/>
<circle cx="194.166" cy="136.73" r="5.81334" fill="#990000"/>
<circle cx="171.145" cy="125.103" r="5.81334" fill="#990000"/>
</svg>
