<svg width="126" height="122" viewBox="0 0 126 122" fill="none" xmlns="http://www.w3.org/2000/svg">
<path d="M60.9046 2.0451C62.07 0.907678 63.93 0.907675 65.0954 2.0451L112.286 48.1031C114.211 49.9822 112.881 53.25 110.191 53.25H15.8093C13.119 53.25 11.7886 49.9822 13.7139 48.1031L60.9046 2.0451Z" fill="#8A5944"/>
<path d="M62.3153 5.6432C62.7002 5.28166 63.2998 5.28166 63.6847 5.6432L112.255 51.2712C112.916 51.8915 112.477 53 111.57 53H14.4295C13.5235 53 13.0845 51.8915 13.7448 51.2712L62.3153 5.6432Z" fill="#DECD8E"/>
<path d="M76.3085 51.8467C76.3085 52.577 76.1234 53.3001 75.7637 53.9748C75.4041 54.6495 74.877 55.2625 74.2125 55.7789C73.5479 56.2953 72.759 56.7049 71.8908 56.9844C71.0226 57.2639 70.092 57.4077 69.1522 57.4077C68.2125 57.4077 67.2819 57.2639 66.4137 56.9844C65.5455 56.7049 64.7566 56.2953 64.092 55.7789C63.4275 55.2625 62.9004 54.6495 62.5408 53.9748C62.1811 53.3001 61.996 52.577 61.996 51.8467L69.1522 51.8467H76.3085Z" fill="#30C18D"/>
<path d="M27.9059 51.8467C27.9059 52.577 27.7208 53.3001 27.3612 53.9748C27.0016 54.6495 26.4744 55.2625 25.8099 55.7789C25.1454 56.2953 24.3565 56.7049 23.4883 56.9844C22.6201 57.2639 21.6895 57.4077 20.7497 57.4077C19.81 57.4077 18.8794 57.2639 18.0112 56.9844C17.1429 56.7049 16.354 56.2953 15.6895 55.7789C15.025 55.2625 14.4979 54.6495 14.1382 53.9748C13.7786 53.3001 13.5935 52.577 13.5935 51.8467L20.7497 51.8467H27.9059Z" fill="#30C18D"/>
<path d="M100.77 51.8467C100.77 52.577 100.585 53.3001 100.225 53.9748C99.8653 54.6495 99.3382 55.2625 98.6736 55.7789C98.0091 56.2953 97.2202 56.7049 96.352 56.9844C95.4838 57.2639 94.5532 57.4077 93.6134 57.4077C92.6737 57.4077 91.7431 57.2639 90.8749 56.9844C90.0066 56.7049 89.2177 56.2953 88.5532 55.7789C87.8887 55.2625 87.3616 54.6495 87.0019 53.9748C86.6423 53.3001 86.4572 52.577 86.4572 51.8467L93.6134 51.8467H100.77Z" fill="#30C18D"/>
<path d="M52.3679 51.8467C52.3679 52.577 52.1828 53.3001 51.8231 53.9748C51.4635 54.6495 50.9364 55.2625 50.2718 55.7789C49.6073 56.2953 48.8184 56.7049 47.9502 56.9844C47.082 57.2639 46.1514 57.4077 45.2116 57.4077C44.2719 57.4077 43.3413 57.2639 42.4731 56.9844C41.6048 56.7049 40.8159 56.2953 40.1514 55.7789C39.4869 55.2625 38.9598 54.6495 38.6002 53.9748C38.2405 53.3001 38.0554 52.577 38.0554 51.8467L45.2116 51.8467H52.3679Z" fill="#30C18D"/>
<path d="M88.5392 51.8467C88.5392 52.577 88.3541 53.3001 87.9944 53.9748C87.6348 54.6495 87.1077 55.2625 86.4432 55.7789C85.7787 56.2953 84.9898 56.7049 84.1215 56.9844C83.2533 57.2639 82.3227 57.4077 81.383 57.4077C80.4432 57.4077 79.5126 57.2639 78.6444 56.9844C77.7762 56.7049 76.9873 56.2953 76.3228 55.7789C75.6582 55.2625 75.1311 54.6495 74.7715 53.9748C74.4118 53.3001 74.2267 52.577 74.2267 51.8467L81.383 51.8467H88.5392Z" fill="#30C18D"/>
<path d="M40.1371 51.8467C40.1371 52.577 39.952 53.3001 39.5924 53.9748C39.2328 54.6495 38.7056 55.2625 38.0411 55.7789C37.3766 56.2953 36.5877 56.7049 35.7195 56.9844C34.8513 57.2639 33.9207 57.4077 32.9809 57.4077C32.0412 57.4077 31.1106 57.2639 30.2424 56.9844C29.3741 56.7049 28.5852 56.2953 27.9207 55.7789C27.2562 55.2625 26.7291 54.6495 26.3694 53.9748C26.0098 53.3001 25.8247 52.577 25.8247 51.8467L32.9809 51.8467H40.1371Z" fill="#30C18D"/>
<path d="M113 51.8467C113 52.577 112.815 53.3001 112.455 53.9748C112.096 54.6495 111.569 55.2625 110.904 55.7789C110.24 56.2953 109.451 56.7049 108.582 56.9844C107.714 57.2639 106.784 57.4077 105.844 57.4077C104.904 57.4077 103.974 57.2639 103.105 56.9844C102.237 56.7049 101.448 56.2953 100.784 55.7789C100.119 55.2625 99.5921 54.6495 99.2324 53.9748C98.8728 53.3001 98.6877 52.577 98.6877 51.8467L105.844 51.8467H113Z" fill="#30C18D"/>
<path d="M64.5983 51.8467C64.5983 52.577 64.4132 53.3001 64.0536 53.9748C63.694 54.6495 63.1668 55.2625 62.5023 55.7789C61.8378 56.2953 61.0489 56.7049 60.1807 56.9844C59.3124 57.2639 58.3819 57.4077 57.4421 57.4077C56.5023 57.4077 55.5718 57.2639 54.7035 56.9844C53.8353 56.7049 53.0464 56.2953 52.3819 55.7789C51.7174 55.2625 51.1903 54.6495 50.8306 53.9748C50.471 53.3001 50.2859 52.577 50.2859 51.8467L57.4421 51.8467H64.5983Z" fill="#30C18D"/>
<path d="M89.6738 99.4597C89.2234 100.999 87.6424 101.912 86.0845 101.532L50.3107 92.8175C47.6817 92.1771 47.1773 88.6577 49.5207 87.3047L95.6344 60.681C97.9778 59.328 100.774 61.5245 100.014 64.1215L89.6738 99.4597Z" fill="#8A5944"/>
<path d="M88.493 94.8344C87.7466 97.4119 85.0988 98.9406 82.4935 98.2983L56.9672 92.0049C52.595 90.927 51.7642 85.0717 55.664 82.8201L88.5033 63.8604C92.4031 61.6088 97.0585 65.2559 95.806 69.5813L88.493 94.8344Z" fill="#DECD8E"/>
<path d="M62.4824 78.2646C63.8284 80.596 64.1931 83.3666 63.4964 85.9669C62.7996 88.5672 61.0984 90.7843 58.7671 92.1303C56.4357 93.4763 53.6651 93.8411 51.0647 93.1443C48.4644 92.4476 46.2474 90.7464 44.9014 88.415L53.6919 83.3398L62.4824 78.2646Z" fill="#F4EEEE"/>
<path d="M76.8989 69.9409C78.2449 72.2723 78.6096 75.0429 77.9129 77.6432C77.2161 80.2435 75.5149 82.4606 73.1836 83.8066C70.8522 85.1526 68.0816 85.5174 65.4813 84.8206C62.8809 84.1239 60.6639 82.4227 59.3179 80.0913L68.1084 75.0161L76.8989 69.9409Z" fill="#F4EEEE"/>
<path d="M79.5913 74.605C81.1385 77.2848 81.6961 80.3895 81.1416 83.2362C80.5871 86.0828 78.9658 88.4383 76.6344 89.7843C74.303 91.1303 71.4525 91.3567 68.71 90.4136C65.9674 89.4705 63.5575 87.4352 62.0103 84.7554L70.8008 79.6802L79.5913 74.605Z" fill="#F4EEEE"/>
<path d="M91.3151 61.6181C92.6611 63.9495 93.0259 66.7201 92.3291 69.3204C91.6324 71.9208 89.9312 74.1378 87.5998 75.4838C85.2684 76.8298 82.4978 77.1946 79.8975 76.4979C77.2972 75.8011 75.0802 74.0999 73.7341 71.7685L82.5246 66.6933L91.3151 61.6181Z" fill="#F4EEEE"/>
<path d="M99.0507 57.1518C100.397 59.4832 100.761 62.2538 100.065 64.8541C99.368 67.4545 97.6668 69.6715 95.3354 71.0175C93.004 72.3635 90.2334 72.7283 87.6331 72.0315C85.0328 71.3348 82.8158 69.6336 81.4697 67.3022L90.2602 62.227L99.0507 57.1518Z" fill="#F4EEEE"/>
<ellipse cx="52.5" cy="72" rx="1.5" ry="2" fill="#DECD8E"/>
<circle cx="68.5" cy="68.5" r="1.5" fill="#DECD8E"/>
<ellipse cx="40.5" cy="85" rx="1.5" ry="2" fill="#DECD8E"/>
</svg>
